# xmcd
#
# Track frame offsets:
#	225
#	12392
#	26652
#	39952
#	53940
#	68205
#	83185
#	93037
#	107445
#	122142
#	136577
#	152465
#	165030
#	176437
#	189005
#	199160
#	212855
#	223167
#	238842
#	253840
#	268870
#	279477
#	293092
#	305360
#	318702
#
# Disc length: 4448 seconds
#
# Revision: 1
# Processed by: cddbd v1.5.1PL2 Copyright (c) Steve Scherf et al.
# Submitted via: audiograbber 1.83.01
#
DISCID=5b115d19
DTITLE=Perry Como - A Sentimiental Date With Perry
DYEAR=1900
DGENRE=Vocal
TTITLE0=Love Me Or Leave Me
TTITLE1=Body And Soul
TTITLE2=Laroo Laroo Lilli Bolero
TTITLE3=Roses Of Picardy
TTITLE4=I Gotta A Girl I Love
TTITLE5=What Am I Gonna Do About You
TTITLE6=I've Got A Feeling I'm Falling
TTITLE7=I Never Loved Anyone
TTITLE8=So Far
TTITLE9=That's Where I Came In
TTITLE10=Pianissimo
TTITLE11=Love Of My Life
TTITLE12=Better Luck Next Time
TTITLE13=It Only Happens When I Dance With You
TTITLE14=When You're Smiling
TTITLE15=My Melancholy Baby
TTITLE16=I Wish I Had A Record
TTITLE17=The Meadows Of Heaven
TTITLE18=A Dreamer's Holiday
TTITLE19=Hush Little Darling
TTITLE20=I Wanna Go Home
TTITLE21=On The Outgoing Tide
TTITLE22=It's A Lovely Day Today
TTITLE23=You're Just In Love
TTITLE24=Tumbling Tumbleweeds
EXTD=
EXTT0=
EXTT1=
EXTT2=
EXTT3=
EXTT4=
EXTT5=
EXTT6=
EXTT7=
EXTT8=
EXTT9=
EXTT10=
EXTT11=
EXTT12=
EXTT13=
EXTT14=
EXTT15=
EXTT16=
EXTT17=
EXTT18=
EXTT19=
EXTT20=
EXTT21=
EXTT22=
EXTT23=
EXTT24=
PLAYORDER=
